<?xml version="1.0" encoding="UTF-8"?>
<!DOCTYPE svg PUBLIC "-//W3C//DTD SVG 1.1//EN" "http://www.w3.org/Graphics/SVG/1.1/DTD/svg11.dtd">
<!-- Creator: CorelDRAW X7 -->
<svg xmlns="http://www.w3.org/2000/svg" xml:space="preserve" width="300px" height="169px" version="1.1" style="shape-rendering:geometricPrecision; text-rendering:geometricPrecision; image-rendering:optimizeQuality; fill-rule:evenodd; clip-rule:evenodd"
viewBox="0 0 300 169"
 xmlns:xlink="http://www.w3.org/1999/xlink">
 <defs>
  <style type="text/css">
   <![CDATA[
    .fil3 {fill:#103D57}
    .fil2 {fill:black;fill-rule:nonzero}
    .fil0 {fill:#1B96D3;fill-rule:nonzero}
    .fil1 {fill:#4D4D4D;fill-rule:nonzero}
   ]]>
  </style>
 </defs>
 <g id="Layer_x0020_1">
  <metadata id="CorelCorpID_0Corel-Layer"/>
  <g id="_1501229753392">
   <path class="fil0" d="M141 78l0 28c0,1 -1,2 -2,3 0,0 0,0 -1,0 0,0 -1,0 -1,0l-6 0 0 -34 6 0c0,0 1,0 1,0 1,0 1,0 1,1 1,0 1,0 1,1 1,0 1,1 1,1zm19 34c1,-1 1,-1 1,-2l0 -35c0,-1 -1,-2 -1,-2l0 0c0,-1 -1,-2 -1,-2 -1,-1 -2,-1 -3,-1 0,-1 -1,-1 -2,-1l0 0 -43 0 0 61 20 0 0 -15 23 0c1,0 2,0 3,-1 0,0 1,0 2,-1 0,0 1,-1 1,-1zm-78 -33l0 27c0,2 -1,3 -3,3 -1,0 -2,0 -2,0 -1,0 -1,0 -2,0 0,0 -1,-1 -1,-1 0,-1 -1,-2 -1,-2l0 -28c0,0 1,-1 1,-2 0,0 1,-1 1,-1 1,0 1,0 2,0 0,0 1,0 2,0 1,0 2,0 2,1 1,1 1,1 1,3zm20 32c0,0 1,-1 1,-2l0 -34c0,-1 -1,-2 -1,-2 0,-1 -1,-2 -1,-2 -1,-1 -2,-1 -3,-1 -1,-1 -2,-1 -3,-1l-35 0c-1,0 -2,0 -2,1 -1,0 -2,0 -3,1 -1,1 -1,1 -2,2 0,0 0,1 0,2l0 34c0,1 0,2 0,2 1,1 1,1 2,2 1,1 2,1 3,1 0,1 1,1 2,1l35 0c1,0 2,0 3,-1 1,0 2,0 3,-1 0,0 1,-1 1,-2zm-57 -51l21 0 0 -9 -66 0 0 9 23 0 0 55 20 0 0 -55 2 0z"/>
   <path class="fil1" d="M164 88c1,-1 2,-1 3,-2 1,-1 2,-1 3,-2 1,-1 2,-1 3,-2 1,-1 2,-2 3,-3 1,-1 2,-2 2,-4 0,-1 0,-2 -1,-3 -1,-1 -3,-2 -5,-3 -2,0 -4,0 -7,1 -4,0 -7,1 -10,3 -3,1 -6,2 -9,4 -2,1 -5,3 -7,5 -3,1 -5,3 -6,4 -2,1 -4,3 -5,4 -1,1 -2,1 -2,2 -2,1 -4,3 -5,4 -2,2 -3,4 -5,6 -1,2 -3,4 -4,6 -1,2 -3,5 -3,7 -2,2 -2,5 -3,8 -1,2 -1,5 -1,7 1,2 1,5 2,6 1,2 2,4 4,5 1,0 2,1 3,1 1,1 3,1 4,2 2,0 3,0 5,0 2,0 4,-1 6,-1 3,-1 5,-3 8,-4 2,-2 5,-3 7,-5 2,-2 5,-4 7,-6 2,-2 4,-4 6,-6l6 0c-2,1 -4,2 -5,4 -2,2 -4,3 -6,5 -2,2 -4,4 -6,5 -3,2 -5,4 -7,5 -3,2 -5,3 -7,4 -3,1 -5,1 -8,2 -1,0 -3,0 -4,0 -2,0 -3,0 -5,-1 -1,0 -2,-1 -4,-1 -1,-1 -2,-2 -3,-3 -2,-2 -4,-4 -5,-6 0,-2 -1,-5 -1,-7 0,-3 1,-5 1,-8 1,-3 2,-5 3,-8 1,-3 2,-5 4,-8 2,-2 4,-5 6,-7 2,-3 4,-5 6,-7 2,-2 5,-4 7,-6 5,-4 10,-7 15,-10 5,-3 10,-5 15,-6 1,-1 2,-1 2,-1 1,0 2,-1 3,-1 1,0 3,0 4,-1 2,0 3,0 5,0 1,0 3,1 4,1 1,1 2,2 3,3 1,2 1,4 1,6 0,1 -1,3 -2,5 -1,1 -3,3 -4,4 -2,1 -4,2 -6,3 -2,1 -3,2 -5,3 -1,0 -2,1 -3,1l3 -4z"/>
   <path id="1" class="fil1" d="M171 127c-1,1 -3,1 -4,2 -1,0 -1,0 -2,0 -1,-1 -1,-1 -1,-2 0,0 0,-1 0,-2 0,-1 1,-2 1,-3 1,-2 1,-3 2,-4 0,-1 1,-1 1,-2 1,-1 1,-1 1,-2 1,-1 2,-3 3,-5 1,-1 2,-3 3,-5 2,-2 4,-5 5,-8 2,-3 4,-6 6,-8 0,-1 1,-1 1,-1 0,0 0,-1 1,-1 0,0 1,-1 2,-1 0,0 1,0 1,0 0,1 -1,1 -1,2 -1,1 -1,2 -2,3 0,0 -1,1 -1,2 -1,1 -1,1 -1,1 -2,3 -4,6 -6,9 -2,2 -4,5 -6,8 -1,2 -2,4 -3,6 -2,2 -3,4 -4,6 -1,2 -1,4 -1,4 1,1 2,0 3,-1 1,0 1,0 2,-1 1,0 2,-1 3,-2 1,0 2,-1 2,-1 1,-1 2,-1 2,-2l0 3c0,0 0,0 -1,1 -1,0 -1,1 -2,1 -1,1 -2,1 -2,2 -1,0 -2,1 -2,1z"/>
   <path id="2" class="fil1" d="M179 122c0,1 -1,2 -1,2 0,1 0,2 1,2 0,0 0,1 1,0 1,0 2,0 2,0 1,0 2,-1 3,-1 1,-1 2,-1 3,-2 1,0 2,-1 3,-2 1,0 2,-1 3,-2l0 3c-1,0 -2,1 -3,2 -2,1 -3,2 -5,3 -1,1 -3,1 -4,2 -2,0 -3,0 -4,0 -1,-1 -2,-1 -2,-3 0,-1 0,-3 0,-4 1,-1 1,-3 2,-4 1,-1 2,-3 3,-4 1,-1 2,-3 3,-4 2,-1 3,-1 4,-2 1,0 2,0 3,1 0,0 1,0 1,1 0,0 0,1 0,2 0,0 0,1 -1,2 0,0 -1,1 -2,2 -1,1 -2,1 -3,2 -1,1 -3,1 -4,2 -1,1 -2,1 -3,2zm3 -5c0,0 0,0 -1,0 0,1 0,1 0,1 1,0 2,-1 3,-1 0,-1 1,-1 2,-2 1,-1 2,-1 3,-2 0,-1 0,-1 1,-2 0,0 -1,0 -1,0 0,-1 -1,0 -2,0 0,0 -1,1 -1,1 -1,1 -2,2 -2,3 -1,0 -2,1 -2,2z"/>
   <path id="3" class="fil1" d="M212 109c0,0 0,0 0,1 1,0 1,1 0,1 0,0 0,1 0,1 0,1 -1,1 -1,2 -1,0 -1,0 -2,0 0,0 0,0 -1,0 1,-1 1,-1 1,-2 0,0 0,-1 0,-1 0,0 0,0 -1,0 0,0 -1,0 -2,0 -1,1 -1,1 -2,1 0,0 -1,1 -1,1 -1,1 -2,1 -2,2 -1,0 -2,1 -2,2 -1,0 -1,1 -2,1 0,1 -1,2 -2,3 0,1 -1,2 -1,3 -1,1 -1,1 0,2 0,0 0,0 1,0 0,0 1,-1 1,-1 1,0 2,-1 2,-1 1,-1 2,-2 2,-2 1,-1 2,-1 2,-2 1,-1 2,-1 2,-2 1,-1 1,-1 2,-2 0,0 1,-1 1,-1l3 0c-1,1 -1,1 -2,2 0,0 -1,1 -1,2 -1,0 -1,1 -2,2 -1,1 -1,2 -1,3 -1,1 -1,1 -1,1 0,1 1,1 1,0 1,0 1,-1 2,-1 1,-1 2,-1 3,-2 1,0 2,-1 2,-1 1,-1 2,-1 2,-2l0 3c0,0 -1,1 -2,1 -1,1 -2,2 -3,2 -1,1 -2,2 -3,2 -1,1 -2,1 -2,1 -1,1 -2,1 -2,1 0,0 -1,-1 -1,-1 0,-1 0,-1 0,-2 0,0 1,-1 1,-2 -1,1 -1,1 -1,1 -1,1 -1,1 -1,1 -1,0 -1,1 -2,1 0,1 -1,1 -2,1 -1,1 -1,1 -2,1 -1,0 -1,-1 -2,-1 0,-1 0,-2 0,-3 0,-1 0,-2 1,-3 1,-1 2,-3 3,-4 1,-1 2,-2 3,-4 1,-1 2,-2 4,-3 1,-1 2,-1 3,-2 2,0 3,-1 4,-1 1,0 2,0 3,1z"/>
   <path id="4" class="fil1" d="M227 127c0,-1 0,-2 1,-3 0,-1 1,-3 2,-4 0,-1 1,-2 2,-3 1,-2 2,-3 2,-3 1,-1 1,-1 1,-1 0,-1 0,-1 -1,0 -1,1 -2,2 -4,3 -1,2 -3,3 -5,5 -1,2 -3,3 -5,5 -1,1 -3,2 -4,4 -1,0 -1,0 -1,-1 -1,0 -1,0 -1,-1 1,-1 1,-2 2,-3 0,-1 1,-2 2,-3 0,-1 1,-2 1,-3 1,-2 2,-3 2,-4 0,1 -1,1 -1,1 0,1 -1,1 -1,2 -1,0 -2,1 -2,1 -1,1 -3,2 -4,3l-1 -2c3,-2 6,-4 8,-6 1,-2 3,-4 4,-5 0,-1 1,-1 1,-1 1,-1 1,-1 2,-1 0,0 0,1 0,1 0,0 0,0 0,1 0,0 0,0 0,1 0,0 0,0 -1,1 0,1 -1,2 -1,3 -1,1 -1,2 -2,3 0,0 -1,1 -1,2 0,1 -1,2 -2,3 1,-1 2,-2 3,-3 2,-1 3,-2 4,-3 2,-2 3,-3 4,-4 1,-1 2,-2 3,-2 1,0 1,-1 2,-1 1,0 1,0 2,0 0,0 0,1 0,1 0,1 0,2 0,2 -1,2 -1,3 -2,4 -1,1 -2,2 -3,3 0,1 -1,3 -2,4 0,1 -1,2 -1,2 0,1 0,1 1,1 0,0 0,-1 1,-1 1,-1 2,-1 3,-2 1,-1 2,-2 3,-2 1,-1 2,-1 3,-2l0 3c-1,0 -1,1 -2,1 -1,1 -2,2 -3,2 -1,1 -2,2 -3,2 -1,1 -2,1 -3,2 0,0 -1,0 -2,0 0,-1 -1,-1 -1,-2z"/>
   <path id="5" class="fil1" d="M242 125c1,0 1,0 2,-1 1,-1 2,-1 3,-2 1,0 1,-1 2,-1 1,-1 2,-1 2,-2l0 3c0,0 -1,1 -2,1 -1,1 -2,2 -2,2 -1,1 -2,2 -3,2 -1,1 -2,1 -3,1 0,1 -1,1 -1,1 -1,-1 -1,-1 -2,-1 0,-1 0,-1 0,-2 0,-1 0,-1 0,-2 1,-1 1,-3 2,-4 1,-2 2,-3 3,-5 1,-1 2,-2 3,-4 1,-1 1,-2 2,-3 1,0 1,0 2,0 0,0 1,0 1,0 0,1 -1,2 -2,3 -1,1 -2,2 -3,4 -1,2 -2,3 -3,5 -1,1 -1,3 -2,4 0,1 0,1 0,1 0,1 1,1 1,0zm10 -24c0,-1 0,-2 0,-3 1,0 2,-1 3,-1 0,0 1,1 2,1 0,1 1,2 1,3 0,0 -1,1 -1,2 -1,0 -2,1 -2,1 -1,0 -2,-1 -3,-1 0,-1 0,-2 0,-2z"/>
   <path id="6" class="fil1" d="M265 127c0,-1 0,-2 1,-3 0,-1 1,-3 2,-4 0,-1 1,-2 2,-3 1,-2 2,-3 2,-3 1,-1 1,-1 1,-1 0,-1 0,-1 -1,0 -1,1 -2,2 -4,3 -1,2 -3,3 -5,5 -1,2 -3,3 -5,5 -1,1 -3,2 -4,4 -1,0 -1,0 -1,-1 -1,0 -1,0 -1,-1 1,-1 1,-2 2,-3 0,-1 1,-2 2,-3 0,-1 1,-2 1,-3 1,-2 2,-3 2,-4 0,1 -1,1 -1,1 0,1 -1,1 -1,2 -1,0 -1,1 -2,1 -1,1 -3,2 -4,3l-1 -2c3,-2 6,-4 8,-6 1,-2 3,-4 4,-5 0,-1 1,-1 1,-1 1,-1 1,-1 2,-1 0,0 0,1 0,1 0,0 1,0 0,1 0,0 0,0 0,1 0,0 0,0 -1,1 0,1 -1,2 -1,3 -1,1 -1,2 -2,3 0,0 -1,1 -1,2 0,1 -1,2 -2,3 1,-1 2,-2 3,-3 2,-1 3,-2 4,-3 2,-2 3,-3 4,-4 1,-1 2,-2 3,-2 1,0 1,-1 2,-1 1,0 1,0 2,0 0,0 0,1 0,1 0,1 0,2 0,2 0,2 -1,3 -2,4 -1,1 -2,2 -3,3 0,1 -1,3 -2,4 0,1 -1,2 -1,2 0,1 0,1 1,1 0,0 0,-1 1,-1 1,-1 2,-1 3,-2 1,-1 2,-2 3,-2 1,-1 2,-1 3,-2l0 3c-1,0 -1,1 -2,1 -1,1 -2,2 -3,2 -1,1 -2,2 -3,2 -1,1 -2,1 -3,2 0,0 -1,0 -2,0 0,-1 -1,-1 -1,-2z"/>
   <path id="7" class="fil1" d="M297 109c0,0 0,0 0,1 0,0 0,1 0,1 0,0 0,1 0,1 -1,1 -1,1 -1,2 -1,0 -1,0 -2,0 0,0 -1,0 -1,0 0,-1 1,-1 1,-2 0,0 0,-1 0,-1 0,0 0,0 -1,0 -1,0 -1,0 -2,0 -2,1 -3,2 -4,3 -1,1 -2,2 -4,3 0,0 0,1 -1,1 -1,1 -1,2 -2,3 -1,1 -1,2 -1,3 -1,1 -1,1 0,2 0,0 0,0 1,0 0,0 1,-1 1,-1 1,0 1,-1 2,-1 1,-1 1,-2 2,-2 1,-1 1,-1 2,-2 1,-1 1,-1 2,-2 1,-1 1,-1 2,-2 0,0 0,-1 1,-1l3 0c-1,1 -2,2 -3,3 -1,1 -2,3 -4,4 0,1 -1,2 -2,3 -1,2 -1,3 -2,3l-1 1c3,-2 6,-3 9,-5 2,-2 4,-3 6,-5l0 3c-1,1 -2,2 -3,3 -2,1 -3,1 -5,2 -1,1 -3,2 -4,3 -2,1 -4,2 -5,4 -1,1 -2,2 -3,4 -1,1 -1,3 -2,4 -1,1 -2,3 -4,4 -1,1 -2,2 -4,3 0,1 -1,1 -2,2 0,0 -1,0 -1,0 -1,0 -1,0 -1,-1 -1,0 -1,-1 -1,-2 0,-1 0,-2 1,-3 1,-1 1,-2 2,-3 1,-1 2,-2 3,-3 1,-1 3,-2 4,-3 1,-1 2,-2 3,-2 1,-1 2,-2 3,-2l4 -5c-1,0 -1,1 -2,1 -1,0 -1,0 -2,1 0,0 -1,0 -1,0 -1,0 -1,-1 -2,-1 0,-1 0,-2 0,-3 0,-1 0,-2 1,-3 1,-1 1,-3 2,-4 1,-1 2,-2 4,-4 1,-1 2,-2 3,-3 2,-1 3,-1 4,-2 1,0 3,-1 4,-1 1,0 2,0 3,1zm-24 32c0,0 1,-1 2,-2 0,-1 1,-2 1,-2 -2,1 -3,2 -4,3 -2,1 -3,3 -4,4 -1,0 -1,1 -1,2 -1,0 -1,1 -1,1 0,1 0,1 0,1 1,0 1,0 1,-1 1,0 1,-1 2,-1 1,-1 1,-1 2,-2 0,-1 1,-1 1,-2 1,0 1,0 1,-1z"/>
   <path class="fil2" d="M6 161c0,0 0,0 0,0 0,0 0,0 -1,0 0,0 0,0 0,0 0,0 0,0 -1,-1 0,0 0,0 0,0 -1,0 -1,0 -1,0 0,1 -1,1 -1,1 0,0 0,0 0,0 0,0 0,0 0,1 0,0 0,0 0,0 0,0 0,1 1,1 0,0 0,0 0,0 1,0 1,0 1,0 1,0 1,1 1,1 0,0 1,0 1,0 0,0 0,1 0,1 1,0 1,0 1,1 0,0 0,1 -1,1 0,0 0,1 0,1 -1,0 -1,0 -1,1 -1,0 -1,0 -2,0 -1,0 -1,0 -2,-1 0,0 -1,0 -1,0l0 -1c0,0 0,0 1,0 0,0 0,0 0,0 0,0 0,0 0,0 0,0 0,0 1,0 0,0 0,0 0,0 1,1 1,1 1,1 1,0 1,0 1,-1 0,0 0,0 1,0 0,0 0,0 0,0 0,-1 0,-1 0,-1 0,0 0,0 0,-1 0,0 0,0 -1,0 0,0 0,0 0,0 -1,0 -1,-1 -1,-1 -1,0 -1,0 -1,0 -1,0 -1,0 -1,0 0,-1 0,-1 -1,-1 0,0 0,-1 0,-1 0,-1 0,-1 0,-1 1,-1 1,-1 1,-1 0,0 1,-1 1,-1 1,0 1,0 2,0 0,0 1,0 1,0 1,1 1,1 2,1l-1 1z"/>
   <path id="1" class="fil2" d="M53 159c1,0 1,0 2,0 0,1 1,1 1,1 0,1 1,1 1,2 0,0 0,1 0,1 0,1 0,1 0,1 0,0 0,0 0,0l-7 0c0,1 0,1 1,1 0,1 0,1 0,2 0,0 1,0 1,0 1,0 1,0 1,0 1,0 1,0 1,0 1,0 1,0 1,0 0,0 1,0 1,0 0,0 0,0 0,0 0,0 0,0 0,0l1 0c0,1 -1,1 -1,1 0,0 0,0 -1,0 0,1 0,1 -1,1 0,0 0,0 -1,0 0,0 -1,0 -2,-1 0,0 -1,0 -1,-1 0,0 -1,0 -1,-1 0,-1 0,-1 0,-2 0,-1 0,-2 0,-2 0,-1 1,-1 1,-2 0,0 1,0 1,-1 1,0 1,0 2,0zm0 1c-1,0 -1,1 -2,1 0,0 0,1 -1,2l6 0c0,0 -1,-1 -1,-1 0,0 0,-1 0,-1 0,0 -1,0 -1,0 0,-1 0,-1 -1,-1z"/>
   <path id="2" class="fil2" d="M100 169l0 -10 1 0c0,0 0,0 0,0 0,0 0,1 0,1l0 1c1,0 1,-1 1,-1 1,-1 1,-1 2,-1 0,0 1,0 1,0 0,0 0,0 0,0l0 2c0,0 0,0 0,0 0,0 0,0 0,0 -1,0 -1,0 -1,0 -1,0 -1,0 -2,0 0,1 0,1 -1,2l0 6 -1 0z"/>
   <path id="3" class="fil2" d="M147 159l1 0c0,0 0,0 0,0 0,0 0,0 0,1l3 6c0,0 0,0 0,0 0,1 0,1 0,1 0,0 0,0 0,-1 0,0 0,0 1,0l2 -6c0,-1 0,-1 0,-1 0,0 0,0 0,0l2 0 -4 10 -2 0 -3 -10z"/>
   <path id="4" class="fil2" d="M200 159l0 10 -2 0 0 -10 2 0zm0 -3c0,0 0,1 0,1 0,0 0,0 0,0 0,0 -1,0 -1,0 0,0 0,0 0,0 0,0 0,0 -1,0 0,0 0,0 0,0 0,0 0,0 0,0 0,0 0,-1 0,-1 0,0 0,0 0,0 0,0 0,0 0,-1 0,0 0,0 0,0 1,0 1,0 1,0 0,0 0,0 0,0 0,0 1,0 1,0 0,1 0,1 0,1 0,0 0,0 0,0z"/>
   <path id="5" class="fil2" d="M250 161c0,0 -1,0 -1,0 0,0 0,0 0,0 0,0 0,0 0,0 0,0 0,0 -1,0 0,0 0,0 0,-1 0,0 -1,0 -1,0 0,0 -1,0 -1,1 -1,0 -1,0 -1,0 0,1 -1,1 -1,1 0,1 0,1 0,2 0,0 0,1 0,1 1,1 1,1 1,2 0,0 0,0 1,0 0,0 0,0 1,0 0,0 1,0 1,0 0,0 0,0 1,0 0,0 0,0 0,0 0,0 0,0 0,0 0,0 1,0 1,0l0 0c0,1 -1,1 -1,1 -1,1 -2,1 -2,1 -1,0 -2,0 -2,-1 -1,0 -1,0 -1,-1 -1,0 -1,0 -1,-1 0,-1 -1,-1 -1,-2 0,-1 1,-1 1,-2 0,-1 0,-1 1,-2 0,0 0,0 1,-1 1,0 1,0 2,0 1,0 1,0 2,0 0,1 1,1 1,1l0 1z"/>
   <path id="6" class="fil2" d="M296 159c1,0 1,0 2,0 0,1 1,1 1,1 0,1 1,1 1,2 0,0 0,1 0,1 0,1 0,1 0,1 0,0 0,0 0,0l-7 0c0,1 0,1 1,1 0,1 0,1 0,2 0,0 1,0 1,0 0,0 1,0 1,0 1,0 1,0 1,0 1,0 1,0 1,0 0,0 1,0 1,0 0,0 0,0 0,0 0,0 0,0 0,0l1 0c0,1 -1,1 -1,1 0,0 0,0 -1,0 0,1 0,1 -1,1 0,0 0,0 -1,0 0,0 -1,0 -2,-1 0,0 -1,0 -1,-1 0,0 -1,0 -1,-1 0,-1 0,-1 0,-2 0,-1 0,-2 0,-2 0,-1 1,-1 1,-2 0,0 1,0 1,-1 1,0 1,0 2,0zm0 1c-1,0 -1,1 -2,1 0,0 0,1 -1,2l6 0c0,0 -1,-1 -1,-1 0,0 0,-1 0,-1 0,0 -1,0 -1,0 0,-1 0,-1 -1,-1z"/>
   <path class="fil3" d="M273 66c0,-2 0,-1 0,-3 -1,-4 -4,-9 -6,-13 0,0 -1,-1 -2,-2 0,0 -1,-1 -1,-1 0,0 -1,0 -1,-1 0,0 -1,0 -1,-1 0,0 -1,-1 -1,-1 -1,-1 -1,-2 -1,-3 0,0 1,0 1,0 0,0 1,1 1,1 1,0 2,0 3,0 1,0 2,0 3,0 1,-1 2,-1 3,-2 -1,-1 -2,0 -2,0 -1,0 -2,-1 -2,-1 -3,-2 -3,-7 -4,-10 0,-2 0,-3 0,-5 0,-2 0,-3 -1,-5 -1,-2 -2,-3 -3,-4 -4,-2 -6,-1 -9,2 -2,1 -1,1 -4,2 -2,0 -3,0 -5,1 -2,1 -3,1 -4,3 -1,0 -2,1 -2,1 -1,2 -3,4 -2,6 0,1 2,2 3,3 3,2 2,4 1,6 0,2 0,1 0,3 1,0 1,-1 2,0 0,1 1,2 2,2 1,1 -1,4 3,3 2,-1 1,-1 3,-1 0,-1 1,-2 2,-2 0,0 2,0 2,1 1,1 0,1 1,2 0,1 0,2 -1,3 0,0 -2,0 -3,0 0,0 -2,0 -2,0 -1,0 -2,1 -3,0 -1,0 -1,0 -2,0 -1,1 -2,0 -3,0 -1,0 -3,0 -4,0 -2,-2 -6,-4 -8,-5 -2,0 -4,-2 -6,-2 -1,-1 -1,-1 -2,-2 -2,0 -6,-3 -7,-4 -1,-1 -3,-2 -3,-4 0,-3 3,-2 2,-4l-11 -4c-1,0 -1,1 -1,1 0,0 -1,2 -1,2 1,1 2,0 2,1 0,2 -5,3 -1,5 1,-1 2,-3 3,-3 1,1 1,3 -1,4 -2,1 -1,0 -2,2 -1,2 -1,5 -2,7 0,1 -1,3 -1,4 0,1 0,2 -1,3 0,1 0,3 0,4 -1,1 -1,2 0,3 1,1 6,2 7,2 2,0 3,-1 3,-2 0,-1 1,-3 1,-4 0,-1 1,-2 1,-3 0,-1 0,-3 1,-4 0,-1 0,-1 0,-2 0,-1 0,-1 0,-1 1,-2 1,-3 1,-4 1,0 5,4 7,5 1,1 1,1 2,2 0,0 1,0 1,1 1,1 6,5 8,6 2,1 3,2 5,2 2,1 3,1 5,2 1,0 1,0 2,0 0,0 1,0 1,0 1,0 2,0 3,0 1,1 6,1 6,1 0,1 0,1 0,1 0,0 -1,1 -1,2 0,1 0,0 0,1 -2,4 -2,8 4,10 3,1 5,6 5,8 1,3 15,-11 17,-15zm-46 -64c-12,3 -21,11 -27,21l8 2c5,-8 12,-13 21,-16 21,-6 44,6 50,28 6,21 -6,43 -28,49 -20,6 -41,-5 -48,-24l-8 0c8,24 34,38 58,31 26,-7 40,-33 33,-59 -7,-25 -34,-39 -59,-32z"/>
  </g>
 </g>
</svg>
